<svg version="1.1" id="Layer_1" xmlns="http://www.w3.org/2000/svg" xmlns:xlink="http://www.w3.org/1999/xlink" x="0px" y="0px"
	 width="100%" viewBox="0 0 1200 1200" enable-background="new 0 0 1200 1200" xml:space="preserve">
<path fill="#000000" opacity="1.000000" stroke="none" 
	d="
M562.000000,1201.000000 
	C374.666656,1201.000000 187.833328,1201.000000 1.000000,1201.000000 
	C1.000000,801.000000 1.000000,401.000000 1.000000,1.000000 
	C401.000000,1.000000 801.000000,1.000000 1201.000000,1.000000 
	C1201.000000,401.000000 1201.000000,801.000000 1201.000000,1201.000000 
	C988.166687,1201.000000 775.333313,1201.000000 562.000000,1201.000000 
M710.865601,524.707458 
	C707.676147,529.818298 705.795044,535.535828 697.845398,536.311523 
	C689.605530,537.115662 689.509033,538.153564 687.147400,530.420532 
	C684.341553,521.232971 679.826355,512.574280 679.859741,502.504608 
	C679.886230,494.510132 678.808411,486.493622 677.842957,478.532715 
	C677.684998,477.230225 675.719604,475.391541 674.336182,475.127258 
	C669.079834,474.123077 663.672424,473.911224 658.414490,472.913055 
	C654.889282,472.243805 650.018433,473.845520 648.238892,469.449615 
	C645.058716,461.593781 642.495605,453.482147 639.873047,445.412903 
	C639.471252,444.176422 639.652771,442.249969 640.385254,441.234894 
	C643.048035,437.544769 645.667053,433.668213 649.020935,430.663757 
	C656.079956,424.340057 658.358032,417.743774 651.686646,410.134796 
	C659.362732,403.724030 666.604431,397.676025 674.211365,391.323029 
	C670.983154,389.098877 667.882507,386.962524 663.832886,384.172424 
	C665.152222,387.675201 666.063171,390.093719 666.991455,392.558319 
	C663.144653,395.715546 659.404541,398.006012 655.660706,394.108704 
	C656.903503,389.555786 658.017639,385.474243 659.160217,381.288635 
	C653.270325,378.764954 647.881531,376.280792 642.363220,374.128601 
	C631.393738,369.850372 624.846558,371.686218 616.606567,380.689270 
	C615.780701,381.591553 613.613342,381.849701 612.291138,381.518372 
	C611.336304,381.279114 610.140930,379.581360 610.113708,378.507172 
	C610.028442,375.146118 610.446106,371.772308 610.688599,368.105072 
	C604.298828,367.911530 597.339905,365.513153 593.608154,373.775696 
	C593.287354,374.485809 591.611328,375.031281 590.647400,374.922363 
	C587.300781,374.544128 583.986023,373.868225 580.668457,373.255402 
	C578.957336,372.939270 576.890625,371.699371 575.627563,372.278717 
	C568.566528,375.517548 561.701843,379.184540 554.111206,383.039917 
	C557.195129,385.160187 559.472290,386.972321 561.991089,388.339050 
	C563.034302,388.905121 565.241577,389.107635 565.820129,388.473114 
	C571.633362,382.097687 579.028809,381.090332 586.915466,382.123993 
	C588.598022,382.344574 590.687927,383.800781 591.513733,385.286194 
	C593.100708,388.140594 593.917419,391.423279 595.075134,394.586975 
	C583.827759,402.046478 572.593933,409.027954 561.900269,416.756714 
	C554.942383,421.785492 546.575867,426.510925 549.195435,437.953430 
	C544.134216,435.698669 539.851074,432.533813 535.325684,432.137726 
	C531.037476,431.762451 526.495239,434.289795 522.341736,435.462463 
	C522.144714,436.793640 521.906860,437.323547 522.030579,437.748047 
	C522.613098,439.746857 523.370911,441.695618 523.926880,443.700897 
	C525.620117,449.808044 525.638733,449.911774 530.878906,447.549042 
	C534.205139,446.049286 536.432739,445.714844 538.531860,449.788147 
	C541.311218,455.181366 545.106873,460.050873 548.495178,465.190002 
	C552.141052,463.578247 555.644958,462.344940 558.812927,460.526337 
	C561.234009,459.136475 562.941406,459.498444 565.345337,460.652344 
	C581.896301,468.596893 597.207642,478.402771 610.899719,490.629364 
	C612.090576,491.692749 612.806702,494.497223 612.319275,496.044250 
	C607.177979,512.362000 598.075623,526.466064 587.711243,539.933655 
	C582.266907,547.007996 575.317017,553.988159 579.977600,564.453796 
	C580.724609,566.131104 581.112244,567.968445 581.896423,570.465393 
	C578.786499,568.498108 576.415466,566.554993 573.708191,565.399414 
	C570.422913,563.996948 568.750671,561.678833 568.157837,558.393555 
	C566.406189,548.685608 564.770447,538.956604 562.981201,529.255737 
	C561.586365,521.692749 560.608521,513.995728 555.876831,507.480255 
	C552.747253,503.170746 549.673401,498.800659 546.915649,494.250946 
	C545.807617,492.422913 544.917419,489.967194 545.135498,487.926147 
	C545.733643,482.327728 547.086182,476.813690 547.869568,471.228302 
	C548.045471,469.974121 547.525024,467.840149 546.634705,467.339569 
	C537.857178,462.404907 529.140259,457.271271 519.977478,453.146179 
	C514.134155,450.515503 509.339081,447.683655 506.941162,441.388184 
	C505.514313,437.642212 503.187073,434.239166 501.042664,430.271271 
	C493.752960,443.639801 489.473145,457.259644 488.299011,471.319489 
	C487.227539,484.149780 487.604645,497.110138 490.764557,510.037445 
	C496.686859,534.265564 508.533844,554.411255 527.244690,570.885620 
	C542.640015,584.440735 560.429810,592.850159 580.149353,597.579407 
	C583.944946,598.489685 587.503906,598.959167 590.274414,594.480530 
	C592.929565,590.188293 596.842529,586.674072 600.465820,582.516052 
	C601.435059,585.117920 602.276428,587.187256 602.981750,589.302063 
	C606.509888,599.881592 606.488647,599.755371 617.265503,599.033264 
	C631.669312,598.068176 645.041626,593.471741 657.643616,586.924072 
	C674.612732,578.107300 689.032959,565.949585 699.452332,549.796814 
	C704.443420,542.059204 707.919800,533.344604 712.711304,524.811951 
	C713.016907,523.919495 713.322571,523.027100 713.628235,522.134644 
	C713.395142,522.026367 713.162048,521.918030 712.929016,521.809753 
	C712.421631,522.618225 711.914307,523.426697 710.865601,524.707458 
M731.958618,711.324341 
	C732.896240,707.076050 733.828125,702.826416 734.772522,698.579651 
	C738.640381,681.186218 742.512085,663.793701 746.627075,645.301453 
	C747.540955,650.664978 748.288757,654.943848 748.996399,659.229248 
	C750.606323,668.978577 752.243469,678.723816 753.781372,688.484619 
	C755.245850,697.779663 756.517090,707.106018 758.076721,716.384399 
	C758.349121,718.004883 759.661743,720.775085 760.435486,720.755005 
	C763.626038,720.672546 768.572571,720.785034 769.690002,718.919128 
	C778.855469,703.615295 787.311646,687.886475 795.972717,672.280945 
	C800.432312,664.245911 804.870850,656.199158 809.318848,648.157654 
	C809.650085,648.286316 809.981323,648.414978 810.312561,648.543579 
	C806.426819,672.588928 802.541138,696.634338 798.624329,720.872070 
	C803.263000,720.872070 806.896851,720.872070 811.077759,720.872070 
	C816.259583,689.341370 821.434814,657.851135 826.653809,626.094360 
	C819.691589,626.094360 814.045349,626.094360 808.511475,626.094360 
	C794.782166,651.046570 781.118958,675.878906 767.066956,701.417664 
	C763.252625,675.799866 759.558594,650.989502 755.869446,626.212158 
	C750.029297,626.212158 744.583740,626.212158 739.147217,626.212158 
	C735.402344,642.083374 731.677917,657.745850 728.015808,673.422913 
	C724.338440,689.165527 720.723083,704.922607 717.052307,720.795410 
	C721.561401,720.795410 725.681580,720.795410 729.750244,720.795410 
	C730.345398,717.737305 730.900452,714.885437 731.958618,711.324341 
M618.355652,699.882080 
	C623.989380,712.682495 633.769531,721.063782 647.446411,722.753662 
	C665.289612,724.958435 680.699341,719.109985 693.183655,705.489746 
	C705.411743,692.148987 711.380554,676.785400 709.894104,658.853149 
	C708.987732,647.919373 704.986755,638.314209 695.345520,631.687439 
	C686.387512,625.530396 676.646667,624.289673 666.099243,624.880737 
	C655.137451,625.494934 645.371887,629.214844 637.475037,636.274292 
	C618.581543,653.164307 610.941040,673.988953 618.355652,699.882080 
M434.431091,679.045044 
	C441.681122,674.374878 446.553650,667.944458 448.763763,659.574524 
	C452.408752,645.770264 448.236359,630.410095 433.008209,627.820374 
	C421.406952,625.847595 409.357727,626.466370 397.502258,626.124023 
	C396.694519,626.100769 395.420013,627.552673 395.096771,628.555176 
	C394.458649,630.534119 394.399231,632.691711 393.988953,634.753296 
	C391.092926,649.304565 388.135498,663.843689 385.262665,678.399475 
	C382.488342,692.456360 379.791901,706.528564 377.019135,720.810913 
	C381.321289,720.810913 385.437744,720.810913 389.666382,720.810913 
	C391.785553,710.516052 394.186462,700.330505 395.848602,690.025818 
	C396.483307,686.090820 397.633667,684.799683 401.617004,684.914551 
	C412.692261,685.233704 423.938477,686.097778 434.431091,679.045044 
M457.037292,699.745605 
	C455.795898,706.723267 454.554535,713.700928 453.286560,720.828125 
	C471.291962,720.828125 489.397369,720.828125 507.782318,720.828125 
	C508.257446,717.320923 508.722961,713.884399 509.269684,709.848755 
	C495.137451,709.848755 481.626709,709.848755 468.142578,709.848755 
	C470.308472,698.960876 472.374298,688.576111 474.478149,678.000000 
	C484.209839,678.000000 493.850830,678.064880 503.488983,677.930481 
	C504.945343,677.910156 507.369995,677.277100 507.656860,676.384399 
	C508.571045,673.539368 508.688171,670.438171 509.169495,667.038208 
	C498.265076,667.038208 487.825806,667.038208 476.750702,667.038208 
	C478.690308,656.742615 480.546265,646.891174 482.409668,637.000000 
	C495.238342,637.000000 507.719543,637.047913 520.199158,636.930908 
	C521.548218,636.918335 523.736572,636.268982 524.075745,635.366455 
	C525.154907,632.494446 525.544067,629.363159 526.271606,626.000000 
	C508.949036,626.000000 492.478668,626.109253 476.011810,625.915955 
	C472.323578,625.872620 471.221619,627.252258 470.925079,630.645996 
	C470.559875,634.825256 469.778595,638.983521 468.945221,643.103882 
	C465.174866,661.744995 461.322662,680.369507 457.037292,699.745605 
M542.001038,691.241455 
	C541.667358,689.175842 541.142517,687.120361 541.031738,685.042847 
	C540.412964,673.434082 544.116577,663.223938 550.657227,653.697021 
	C562.257019,636.801025 583.267273,630.971619 601.295410,640.025879 
	C608.014038,643.400146 608.018311,643.402893 611.932007,637.361938 
	C612.187012,636.968384 612.187683,636.366272 612.501221,636.061218 
	C615.123535,633.509949 614.192749,632.083008 611.239136,630.613953 
	C601.498230,625.768799 591.306335,624.422668 580.471252,624.855103 
	C566.556396,625.410461 554.863159,630.747681 545.397949,640.320984 
	C532.441223,653.425781 525.974670,669.184143 527.868958,688.145691 
	C529.081482,700.281860 534.082642,709.595032 544.025818,716.605225 
	C559.745483,727.687744 585.374573,723.202209 599.550049,713.728821 
	C600.498047,713.095337 601.055664,710.652466 600.639282,709.451965 
	C599.712769,706.781189 598.053345,704.364624 596.673950,701.809814 
	C571.151001,719.277954 548.669922,712.801758 542.001038,691.241455 
M696.901550,417.979431 
	C693.779602,415.028259 690.657593,412.077118 687.366760,408.966339 
	C687.979309,411.198547 688.543579,413.254608 689.098877,415.278107 
	C687.743469,416.166107 686.576843,416.930450 685.932495,417.352600 
	C682.495361,414.974945 679.409302,412.428131 675.937317,410.624176 
	C674.364014,409.806702 671.201904,409.618500 670.185486,410.608276 
	C666.994324,413.715454 664.479980,417.517670 661.703491,421.050720 
	C664.114319,419.941711 667.627441,419.258301 671.161804,419.120239 
	C672.739685,419.058624 675.438171,419.720398 675.775330,420.694855 
	C677.246155,424.946564 680.854492,424.341553 683.928589,424.973724 
	C685.670349,425.331909 687.470215,425.398163 689.237244,425.643860 
	C694.669739,426.399261 700.098999,427.177765 705.529541,427.947296 
	C705.798218,427.553467 706.066895,427.159668 706.335571,426.765839 
	C703.448303,423.843475 700.561035,420.921112 696.901550,417.979431 
z"/>
<path fill="#FFFFFF" opacity="1.000000" stroke="none" 
	d="
M712.082214,525.072510 
	C707.919800,533.344604 704.443420,542.059204 699.452332,549.796814 
	C689.032959,565.949585 674.612732,578.107300 657.643616,586.924072 
	C645.041626,593.471741 631.669312,598.068176 617.265503,599.033264 
	C606.488647,599.755371 606.509888,599.881592 602.981750,589.302063 
	C602.276428,587.187256 601.435059,585.117920 600.465820,582.516052 
	C596.842529,586.674072 592.929565,590.188293 590.274414,594.480530 
	C587.503906,598.959167 583.944946,598.489685 580.149353,597.579407 
	C560.429810,592.850159 542.640015,584.440735 527.244690,570.885620 
	C508.533844,554.411255 496.686859,534.265564 490.764557,510.037445 
	C487.604645,497.110138 487.227539,484.149780 488.299011,471.319489 
	C489.473145,457.259644 493.752960,443.639801 501.042664,430.271271 
	C503.187073,434.239166 505.514313,437.642212 506.941162,441.388184 
	C509.339081,447.683655 514.134155,450.515503 519.977478,453.146179 
	C529.140259,457.271271 537.857178,462.404907 546.634705,467.339569 
	C547.525024,467.840149 548.045471,469.974121 547.869568,471.228302 
	C547.086182,476.813690 545.733643,482.327728 545.135498,487.926147 
	C544.917419,489.967194 545.807617,492.422913 546.915649,494.250946 
	C549.673401,498.800659 552.747253,503.170746 555.876831,507.480255 
	C560.608521,513.995728 561.586365,521.692749 562.981201,529.255737 
	C564.770447,538.956604 566.406189,548.685608 568.157837,558.393555 
	C568.750671,561.678833 570.422913,563.996948 573.708191,565.399414 
	C576.415466,566.554993 578.786499,568.498108 581.896423,570.465393 
	C581.112244,567.968445 580.724609,566.131104 579.977600,564.453796 
	C575.317017,553.988159 582.266907,547.007996 587.711243,539.933655 
	C598.075623,526.466064 607.177979,512.362000 612.319275,496.044250 
	C612.806702,494.497223 612.090576,491.692749 610.899719,490.629364 
	C597.207642,478.402771 581.896301,468.596893 565.345337,460.652344 
	C562.941406,459.498444 561.234009,459.136475 558.812927,460.526337 
	C555.644958,462.344940 552.141052,463.578247 548.495178,465.190002 
	C545.106873,460.050873 541.311218,455.181366 538.531860,449.788147 
	C536.432739,445.714844 534.205139,446.049286 530.878906,447.549042 
	C525.638733,449.911774 525.620117,449.808044 523.926880,443.700897 
	C523.370911,441.695618 522.613098,439.746857 522.030579,437.748047 
	C521.906860,437.323547 522.144714,436.793640 522.341736,435.462463 
	C526.495239,434.289795 531.037476,431.762451 535.325684,432.137726 
	C539.851074,432.533813 544.134216,435.698669 549.195435,437.953430 
	C546.575867,426.510925 554.942383,421.785492 561.900269,416.756714 
	C572.593933,409.027954 583.827759,402.046478 595.075134,394.586975 
	C593.917419,391.423279 593.100708,388.140594 591.513733,385.286194 
	C590.687927,383.800781 588.598022,382.344574 586.915466,382.123993 
	C579.028809,381.090332 571.633362,382.097687 565.820129,388.473114 
	C565.241577,389.107635 563.034302,388.905121 561.991089,388.339050 
	C559.472290,386.972321 557.195129,385.160187 554.111206,383.039917 
	C561.701843,379.184540 568.566528,375.517548 575.627563,372.278717 
	C576.890625,371.699371 578.957336,372.939270 580.668457,373.255402 
	C583.986023,373.868225 587.300781,374.544128 590.647400,374.922363 
	C591.611328,375.031281 593.287354,374.485809 593.608154,373.775696 
	C597.339905,365.513153 604.298828,367.911530 610.688599,368.105072 
	C610.446106,371.772308 610.028442,375.146118 610.113708,378.507172 
	C610.140930,379.581360 611.336304,381.279114 612.291138,381.518372 
	C613.613342,381.849701 615.780701,381.591553 616.606567,380.689270 
	C624.846558,371.686218 631.393738,369.850372 642.363220,374.128601 
	C647.881531,376.280792 653.270325,378.764954 659.160217,381.288635 
	C658.017639,385.474243 656.903503,389.555786 655.660706,394.108704 
	C659.404541,398.006012 663.144653,395.715546 666.991455,392.558319 
	C666.063171,390.093719 665.152222,387.675201 663.832886,384.172424 
	C667.882507,386.962524 670.983154,389.098877 674.211365,391.323029 
	C666.604431,397.676025 659.362732,403.724030 651.686646,410.134796 
	C658.358032,417.743774 656.079956,424.340057 649.020935,430.663757 
	C645.667053,433.668213 643.048035,437.544769 640.385254,441.234894 
	C639.652771,442.249969 639.471252,444.176422 639.873047,445.412903 
	C642.495605,453.482147 645.058716,461.593781 648.238892,469.449615 
	C650.018433,473.845520 654.889282,472.243805 658.414490,472.913055 
	C663.672424,473.911224 669.079834,474.123077 674.336182,475.127258 
	C675.719604,475.391541 677.684998,477.230225 677.842957,478.532715 
	C678.808411,486.493622 679.886230,494.510132 679.859741,502.504608 
	C679.826355,512.574280 684.341553,521.232971 687.147400,530.420532 
	C689.509033,538.153564 689.605530,537.115662 697.845398,536.311523 
	C705.795044,535.535828 707.676147,529.818298 711.296753,524.687378 
	C711.845947,524.802307 711.964050,524.937439 712.082214,525.072510 
M550.992004,447.491302 
	C553.115662,448.563751 555.239319,449.636230 557.466309,450.760895 
	C558.871704,449.751556 560.375305,448.671661 563.078552,446.730225 
	C557.386597,445.932526 552.960999,445.312317 548.535461,444.692139 
	C548.429016,445.007599 548.322571,445.323090 548.216125,445.638580 
	C548.934143,446.102722 549.652222,446.566895 550.992004,447.491302 
z"/>
<path fill="#FFFFFF" opacity="1.000000" stroke="none" 
	d="
M731.707031,711.678955 
	C730.900452,714.885437 730.345398,717.737305 729.750244,720.795410 
	C725.681580,720.795410 721.561401,720.795410 717.052307,720.795410 
	C720.723083,704.922607 724.338440,689.165527 728.015808,673.422913 
	C731.677917,657.745850 735.402344,642.083374 739.147217,626.212158 
	C744.583740,626.212158 750.029297,626.212158 755.869446,626.212158 
	C759.558594,650.989502 763.252625,675.799866 767.066956,701.417664 
	C781.118958,675.878906 794.782166,651.046570 808.511475,626.094360 
	C814.045349,626.094360 819.691589,626.094360 826.653809,626.094360 
	C821.434814,657.851135 816.259583,689.341370 811.077759,720.872070 
	C806.896851,720.872070 803.263000,720.872070 798.624329,720.872070 
	C802.541138,696.634338 806.426819,672.588928 810.312561,648.543579 
	C809.981323,648.414978 809.650085,648.286316 809.318848,648.157654 
	C804.870850,656.199158 800.432312,664.245911 795.972717,672.280945 
	C787.311646,687.886475 778.855469,703.615295 769.690002,718.919128 
	C768.572571,720.785034 763.626038,720.672546 760.435486,720.755005 
	C759.661743,720.775085 758.349121,718.004883 758.076721,716.384399 
	C756.517090,707.106018 755.245850,697.779663 753.781372,688.484619 
	C752.243469,678.723816 750.606323,668.978577 748.996399,659.229248 
	C748.288757,654.943848 747.540955,650.664978 746.627075,645.301453 
	C742.512085,663.793701 738.640381,681.186218 734.772522,698.579651 
	C733.828125,702.826416 732.896240,707.076050 731.707031,711.678955 
z"/>
<path fill="#FFFFFF" opacity="1.000000" stroke="none" 
	d="
M618.189575,699.510742 
	C610.941040,673.988953 618.581543,653.164307 637.475037,636.274292 
	C645.371887,629.214844 655.137451,625.494934 666.099243,624.880737 
	C676.646667,624.289673 686.387512,625.530396 695.345520,631.687439 
	C704.986755,638.314209 708.987732,647.919373 709.894104,658.853149 
	C711.380554,676.785400 705.411743,692.148987 693.183655,705.489746 
	C680.699341,719.109985 665.289612,724.958435 647.446411,722.753662 
	C633.769531,721.063782 623.989380,712.682495 618.189575,699.510742 
M645.533630,645.979004 
	C632.494446,658.319519 626.161255,673.074402 630.064270,691.102722 
	C632.865601,704.042542 641.490723,712.036560 655.438782,711.820984 
	C666.281433,711.653503 675.301636,706.763611 682.479919,698.161194 
	C692.417297,686.252563 698.602905,673.261963 695.913513,657.448303 
	C694.374634,648.399536 689.720215,641.336426 680.590637,637.925659 
	C667.414490,633.003052 656.277466,637.102783 645.533630,645.979004 
z"/>
<path fill="#FFFFFF" opacity="1.000000" stroke="none" 
	d="
M434.176514,679.321655 
	C423.938477,686.097778 412.692261,685.233704 401.617004,684.914551 
	C397.633667,684.799683 396.483307,686.090820 395.848602,690.025818 
	C394.186462,700.330505 391.785553,710.516052 389.666382,720.810913 
	C385.437744,720.810913 381.321289,720.810913 377.019135,720.810913 
	C379.791901,706.528564 382.488342,692.456360 385.262665,678.399475 
	C388.135498,663.843689 391.092926,649.304565 393.988953,634.753296 
	C394.399231,632.691711 394.458649,630.534119 395.096771,628.555176 
	C395.420013,627.552673 396.694519,626.100769 397.502258,626.124023 
	C409.357727,626.466370 421.406952,625.847595 433.008209,627.820374 
	C448.236359,630.410095 452.408752,645.770264 448.763763,659.574524 
	C446.553650,667.944458 441.681122,674.374878 434.176514,679.321655 
M404.478333,646.015503 
	C402.740662,655.258301 401.002991,664.501038 399.217163,674.000000 
	C404.180603,674.000000 408.831024,674.063599 413.479126,673.987183 
	C424.106720,673.812500 433.219086,666.892700 435.827515,656.373230 
	C438.218079,646.732544 434.112274,639.783508 424.556488,638.101929 
	C418.632568,637.059631 412.527222,637.048340 406.263489,636.555298 
	C405.763733,639.899780 405.362305,642.586243 404.478333,646.015503 
z"/>
<path fill="#FFFFFF" opacity="1.000000" stroke="none" 
	d="
M457.268616,699.372803 
	C461.322662,680.369507 465.174866,661.744995 468.945221,643.103882 
	C469.778595,638.983521 470.559875,634.825256 470.925079,630.645996 
	C471.221619,627.252258 472.323578,625.872620 476.011810,625.915955 
	C492.478668,626.109253 508.949036,626.000000 526.271606,626.000000 
	C525.544067,629.363159 525.154907,632.494446 524.075745,635.366455 
	C523.736572,636.268982 521.548218,636.918335 520.199158,636.930908 
	C507.719543,637.047913 495.238342,637.000000 482.409668,637.000000 
	C480.546265,646.891174 478.690308,656.742615 476.750702,667.038208 
	C487.825806,667.038208 498.265076,667.038208 509.169495,667.038208 
	C508.688171,670.438171 508.571045,673.539368 507.656860,676.384399 
	C507.369995,677.277100 504.945343,677.910156 503.488983,677.930481 
	C493.850830,678.064880 484.209839,678.000000 474.478149,678.000000 
	C472.374298,688.576111 470.308472,698.960876 468.142578,709.848755 
	C481.626709,709.848755 495.137451,709.848755 509.269684,709.848755 
	C508.722961,713.884399 508.257446,717.320923 507.782318,720.828125 
	C489.397369,720.828125 471.291962,720.828125 453.286560,720.828125 
	C454.554535,713.700928 455.795898,706.723267 457.268616,699.372803 
z"/>
<path fill="#FFFFFF" opacity="1.000000" stroke="none" 
	d="
M542.011963,691.668945 
	C548.669922,712.801758 571.151001,719.277954 596.673950,701.809814 
	C598.053345,704.364624 599.712769,706.781189 600.639282,709.451965 
	C601.055664,710.652466 600.498047,713.095337 599.550049,713.728821 
	C585.374573,723.202209 559.745483,727.687744 544.025818,716.605225 
	C534.082642,709.595032 529.081482,700.281860 527.868958,688.145691 
	C525.974670,669.184143 532.441223,653.425781 545.397949,640.320984 
	C554.863159,630.747681 566.556396,625.410461 580.471252,624.855103 
	C591.306335,624.422668 601.498230,625.768799 611.239136,630.613953 
	C614.192749,632.083008 615.123535,633.509949 612.501221,636.061218 
	C612.187683,636.366272 612.187012,636.968384 611.932007,637.361938 
	C608.018311,643.402893 608.014038,643.400146 601.295410,640.025879 
	C583.267273,630.971619 562.257019,636.801025 550.657227,653.697021 
	C544.116577,663.223938 540.412964,673.434082 541.031738,685.042847 
	C541.142517,687.120361 541.667358,689.175842 542.011963,691.668945 
z"/>
<path fill="#FFFFFF" opacity="1.000000" stroke="none" 
	d="
M697.287720,417.989075 
	C700.561035,420.921112 703.448303,423.843475 706.335571,426.765839 
	C706.066895,427.159668 705.798218,427.553467 705.529541,427.947296 
	C700.098999,427.177765 694.669739,426.399261 689.237244,425.643860 
	C687.470215,425.398163 685.670349,425.331909 683.928589,424.973724 
	C680.854492,424.341553 677.246155,424.946564 675.775330,420.694855 
	C675.438171,419.720398 672.739685,419.058624 671.161804,419.120239 
	C667.627441,419.258301 664.114319,419.941711 661.703491,421.050720 
	C664.479980,417.517670 666.994324,413.715454 670.185486,410.608276 
	C671.201904,409.618500 674.364014,409.806702 675.937317,410.624176 
	C679.409302,412.428131 682.495361,414.974945 685.932495,417.352600 
	C686.576843,416.930450 687.743469,416.166107 689.098877,415.278107 
	C688.543579,413.254608 687.979309,411.198547 687.366760,408.966339 
	C690.657593,412.077118 693.779602,415.028259 697.287720,417.989075 
z"/>
<path fill="#FFFFFF" opacity="1.000000" stroke="none" 
	d="
M711.567383,524.451172 
	C711.914307,523.426697 712.421631,522.618225 712.929016,521.809753 
	C713.162048,521.918030 713.395142,522.026367 713.628235,522.134644 
	C713.322571,523.027100 713.016907,523.919495 712.396729,524.942261 
	C711.964050,524.937439 711.845947,524.802307 711.567383,524.451172 
z"/>
<path fill="#000000" opacity="1.000000" stroke="none" 
	d="
M550.681152,447.261169 
	C549.652222,446.566895 548.934143,446.102722 548.216125,445.638580 
	C548.322571,445.323090 548.429016,445.007599 548.535461,444.692139 
	C552.960999,445.312317 557.386597,445.932526 563.078552,446.730225 
	C560.375305,448.671661 558.871704,449.751556 557.466309,450.760895 
	C555.239319,449.636230 553.115662,448.563751 550.681152,447.261169 
z"/>
<path fill="#000000" opacity="1.000000" stroke="none" 
	d="
M645.781982,645.715942 
	C656.277466,637.102783 667.414490,633.003052 680.590637,637.925659 
	C689.720215,641.336426 694.374634,648.399536 695.913513,657.448303 
	C698.602905,673.261963 692.417297,686.252563 682.479919,698.161194 
	C675.301636,706.763611 666.281433,711.653503 655.438782,711.820984 
	C641.490723,712.036560 632.865601,704.042542 630.064270,691.102722 
	C626.161255,673.074402 632.494446,658.319519 645.781982,645.715942 
z"/>
<path fill="#000000" opacity="1.000000" stroke="none" 
	d="
M404.719604,645.644043 
	C405.362305,642.586243 405.763733,639.899780 406.263489,636.555298 
	C412.527222,637.048340 418.632568,637.059631 424.556488,638.101929 
	C434.112274,639.783508 438.218079,646.732544 435.827515,656.373230 
	C433.219086,666.892700 424.106720,673.812500 413.479126,673.987183 
	C408.831024,674.063599 404.180603,674.000000 399.217163,674.000000 
	C401.002991,664.501038 402.740662,655.258301 404.719604,645.644043 
z"/>
</svg>